<?xml version="1.0" encoding="utf-8"?>
<!DOCTYPE svg PUBLIC "-//W3C//DTD SVG 1.1//EN" "http://www.w3.org/Graphics/SVG/1.1/DTD/svg11.dtd">
<svg version="1.1" id="图形" xmlns="http://www.w3.org/2000/svg" xmlns:xlink="http://www.w3.org/1999/xlink" x="0px" y="0px" width="1024px" height="1024px" viewBox="0 0 1024 1024" enable-background="new 0 0 1024 1024" xml:space="preserve">
  <path fill="#36ab60" d="M436.785778 419.552c98.396444 0 200.668444 21.639111 262.072889 62.840889l0-75.093333 56.888889 0L755.747556 571.793778c0 98.887111-164.337778 152.248889-318.961778 152.248889s-318.961778-53.361778-318.961778-152.248889l0-448.768c0-98.887111 164.337778-152.241778 318.961778-152.241778l0 56.888889c-162.375111 0-262.072889 55.537778-262.072889 95.352889L174.712889 258.001778c61.411556-41.201778 163.676444-62.840889 262.072889-62.840889l0 56.888889c-162.375111 0-262.072889 55.544889-262.072889 95.36L174.712889 482.385778C236.117333 441.191111 338.382222 419.552 436.785778 419.552zM436.785778 667.153778c162.375111 0 262.072889-55.544889 262.072889-95.36S599.160889 476.440889 436.785778 476.440889s-262.072889 55.537778-262.072889 95.352889S274.410667 667.153778 436.785778 667.153778zM691.747556 388.455111c-141.233778 0-215.132444-54.336-215.132444-108.003556l0-288.376889c0-53.667556 73.898667-107.996444 215.132444-107.996444 140.181333 0 213.987556 53.525333 215.082667 106.801778l0.049778 0L906.88 280.458667C906.88 334.126222 832.988444 388.455111 691.747556 388.455111zM691.747556 331.566222c104.405333 0 158.243556-35.825778 158.243556-51.114667s-53.838222-51.114667-158.243556-51.114667-158.243556 35.825778-158.243556 51.114667S587.349333 331.566222 691.747556 331.566222zM691.747556-59.025778c-104.405333 0-158.243556 35.825778-158.243556 51.114667l0 68.842667c36.096-19.605333 89.073778-32.654222 158.243556-32.654222s122.147556 13.048889 158.243556 32.654222l0-68.842667C849.991111-23.2 796.152889-59.025778 691.747556-59.025778zM691.747556 85.159111c-104.405333 0-158.243556 35.825778-158.243556 51.114667l0 68.842667C569.6 185.511111 622.577778 172.455111 691.747556 172.455111s122.147556 13.048889 158.243556 32.654222l0-68.842667C849.991111 120.984889 796.152889 85.159111 691.747556 85.159111z" transform="translate(0, 812) scale(1, -1)"/>
</svg>
