<?xml version="1.0" encoding="utf-8"?>
<!DOCTYPE svg PUBLIC "-//W3C//DTD SVG 1.1//EN" "http://www.w3.org/Graphics/SVG/1.1/DTD/svg11.dtd">
<svg version="1.1" id="图形" xmlns="http://www.w3.org/2000/svg" xmlns:xlink="http://www.w3.org/1999/xlink" x="0px" y="0px" width="1024px" height="1024px" viewBox="0 0 1024 1024" enable-background="new 0 0 1024 1024" xml:space="preserve">
  <path fill="#56abe4" d="M510.659926 748.064852c-246.995304 0-447.199038-200.211904-447.199038-447.180715 0-246.967788 200.203734-447.180715 447.199038-447.180715 246.993257 0 447.200062 200.212928 447.200062 447.180715C957.859987 547.852948 757.654206 748.064852 510.659926 748.064852M510.659926-58.456998c-198.457902 0-359.355858 160.892387-359.355858 359.341135 0 198.448748 160.898979 359.341135 359.355858 359.341135s359.354835-160.89341 359.354835-359.341135C870.015784 102.434366 709.117828-58.456998 510.659926-58.456998M446.774349 556.416997l63.885577 0 0-319.41582-63.885577 0L446.774349 556.416997zM510.659926 300.884137l191.654684 0 0-63.883983L510.659926 237.000154 510.659926 300.884137z" transform="translate(0, 812) scale(1, -1)"/>
</svg>
