<?xml version="1.0" encoding="utf-8"?>
<!DOCTYPE svg PUBLIC "-//W3C//DTD SVG 1.1//EN" "http://www.w3.org/Graphics/SVG/1.1/DTD/svg11.dtd">
<svg version="1.1" id="图形" xmlns="http://www.w3.org/2000/svg" xmlns:xlink="http://www.w3.org/1999/xlink" x="0px" y="0px" width="1024px" height="1024px" viewBox="0 0 1024 1024" enable-background="new 0 0 1024 1024" xml:space="preserve">
  <path fill="#ffffff" d="M508.536109 747.53171c-185.511087 0-335.90026-147.735739-335.90026-329.984526 0-142.363382 204.984604-427.498444 294.692742-545.466206 9.707083-12.764722 24.984021-20.283975 41.206494-20.283975l0.004093 0c16.226566 0 31.505551 7.52437 41.21775 20.295232 89.710184 117.972878 294.681486 403.096684 294.681486 545.45495C844.437391 599.79597 694.050266 747.53171 508.536109 747.53171zM531.628036-50.651218c-5.367241-7.266497-13.950733-11.564383-23.089881-11.564383-9.134031 0-17.721617 4.296863-23.091928 11.564383C329.400219 160.498806 233.872538 337.609573 233.872538 417.547183c0 148.781558 123.215276 269.824355 274.66357 269.824355 151.451364 0 274.665617-121.042797 274.665617-269.824355C783.202749 337.614689 687.669952 160.495736 531.628036-50.651218zM508.536109 578.766005c-78.912257 0-142.883221-62.844304-142.883221-140.367935 0-77.521584 63.970964-140.363841 142.883221-140.363841 78.914304 0 142.887314 62.842257 142.887314 140.363841C651.424446 515.921701 587.450413 578.766005 508.536109 578.766005zM508.536109 358.19133c-45.019333 0-81.648578 35.979446-81.648578 80.20674 0 44.231387 36.629245 80.210833 81.648578 80.210833 45.022403 0 81.648578-35.979446 81.648578-80.210833C590.184687 394.170776 553.558511 358.19133 508.536109 358.19133z" transform="translate(0, 812) scale(1, -1)"/>
</svg>
