<?xml version="1.0" encoding="utf-8"?>
<!DOCTYPE svg PUBLIC "-//W3C//DTD SVG 1.1//EN" "http://www.w3.org/Graphics/SVG/1.1/DTD/svg11.dtd">
<svg version="1.1" id="图形" xmlns="http://www.w3.org/2000/svg" xmlns:xlink="http://www.w3.org/1999/xlink" x="0px" y="0px" width="1024px" height="1024px" viewBox="0 0 1024 1024" enable-background="new 0 0 1024 1024" xml:space="preserve">
  <path fill="#33475f" d="M513.778506 691.546627c38.566364 35.273365 86.458117 42.634006 133.927245 49.923016 65.38108 10.055007 130.816394 8.066723 195.639772-6.952342 21.530362-4.991688 43.057655-11.720949 63.527872-21.088294 13.45136-6.155187 26.152637-16.850783 37.09792-28.447912 12.596899-13.331633 15.597233-33.159214 15.60542-52.910047 0.110517-166.003801 0.063445-332.016813 0.063445-498.020614 0-75.549673 0.192382-151.10037-0.137123-226.650043-0.079818-17.938558-3.324722-35.119869-16.913205-46.182832-13.970176-11.373025-28.186969-10.763135-43.279712-2.762927-10.818393 5.731538-22.098297 11.383258-33.627888 13.701047-59.052954 11.867282-118.746498 13.011338-178.301895 10.32516-38.525432-1.744737-76.907601-8.78406-115.315352-13.817704-4.290723-0.560772-8.91095-2.549056-12.438287-5.525853-10.410094-8.773827-21.890566-11.062963-34.113959-10.472516-15.260565 0.73678-30.531364 1.387603-45.785789 2.228761-1.905396 0.106424-4.00522 0.660032-5.625114 1.814322-32.80515 23.317055-69.870324 20.524452-105.547895 23.880897-34.649148 3.248997-69.673849 3.917216-104.386442 1.918699-39.928385-2.296299-79.787184-7.910157-119.487372-13.951757-11.423167-1.735527-21.947871-10.897188-33.299407-14.910595-17.535375-6.198166-39.261189 9.985422-42.898019 29.076222-2.179642 11.423167-3.933589 23.280216-3.941775 34.936697-0.223081 234.446613-0.079818 468.893226-0.239454 703.329607-0.040932 52.725852 13.906731 72.138994 51.65752 91.888803 32.653701 17.08205 67.846224 23.967878 103.092983 28.825512 65.490573 9.027607 130.806161 7.620561 195.684798-7.058766 18.030655-4.080945 36.131919-9.045003 53.373605-16.463973C483.637022 711.511331 498.029824 700.922159 513.778506 691.546627L513.778506 691.546627zM491.575832-58.662683c0 6.311753 0 10.005888 0 13.699-0.088004 91.14179-0.254803 182.28358-0.246617 273.433556 0.024559 134.52281 0.079818 269.052782 0.414439 403.572522 0.032746 11.859096-3.176342 20.884656-11.320836 26.306132-9.956769 6.632047-20.088524 14.252609-30.92943 17.268292-27.907607 7.756661-56.047504 15.58086-84.448344 19.110243-67.453275 8.367575-134.868687 6.495948-201.119577-13.088086-16.545838-4.88731-32.335453-14.185071-47.908126-22.949688-8.55177-4.810562-11.966543-14.545274-11.95017-26.879184 0.223081-225.999221 0.167822-452.011744 0.190335-678.014034 0-3.229554 0.225127-6.456039 0.271176-7.766894 9.829879 6.758937 19.276019 15.156188 29.806863 20.167319 41.070394 19.547195 84.470857 25.385157 128.008442 27.072589 33.849946 1.298576 67.846224-0.76748 101.704356-2.928702 30.795377-1.958608 61.134359-8.444323 90.430592-20.670785C467.857641-35.916633 481.09206-42.111728 491.575832-58.662683L491.575832-58.662683zM818.930461 691.654075l0-430.652274c-0.645706-0.3776-1.290389-0.757247-1.946328-1.134847-29.150924 35.701107-58.303894 71.399143-88.236624 108.060111-29.647227-36.397978-58.789964-72.175833-87.934748-107.953687-0.670266 0.280386-1.347694 0.560772-2.01796 0.844228L638.794801 692.507512c-27.906583-4.850471-54.235229-10.434653-79.013565-23.436782-6.582929-3.450589-12.789281-8.260128-18.652825-13.331633-5.665023-4.904707-8.504698-11.837606-8.496511-20.904099 0.118704-228.337475 0.088004-456.685183 0.118704-685.023682 0-2.028193 0.502443-4.043083 0.430812-3.489474 9.758248 6.689353 19.042705 14.863523 29.376051 19.817348 39.96113 19.159362 82.268702 25.072025 124.632555 27.119661 52.184523 2.51938 104.545054 2.122337 156.035776-10.965749 27.220968-6.912433 55.048757-12.993942 77.011978-39.530318 0 4.527107 0.008186 7.786337 0 11.04352-0.184195 47.761794-0.527003 95.515401-0.51063 143.277194 0.016373 60.278875 0.447185 120.54854 0.48607 180.827415 0.096191 116.206652-0.301875 232.411257 0.38374 348.607676 0.110517 19.013029-6.382361 29.862121-19.042705 37.715997C876.103602 680.017036 848.514243 686.068869 818.930461 691.654075L818.930461 691.654075z" transform="translate(0, 812) scale(1, -1)"/>
</svg>
