<?xml version="1.0" encoding="utf-8"?>
<!DOCTYPE svg PUBLIC "-//W3C//DTD SVG 1.1//EN" "http://www.w3.org/Graphics/SVG/1.1/DTD/svg11.dtd">
<svg version="1.1" id="图形" xmlns="http://www.w3.org/2000/svg" xmlns:xlink="http://www.w3.org/1999/xlink" x="0px" y="0px" width="1024px" height="1024px" viewBox="0 0 1024 1024" enable-background="new 0 0 1024 1024" xml:space="preserve">
  <path fill="#56abe4" d="M873.767394-40.441693M510.567371 747.586968c-247.00565 0-447.24416-200.236464-447.24416-447.24416S263.560698-146.902376 510.567371-146.902376c94.481861 0 182.116781 29.296233 254.322289 79.300091-0.151449 0.054235-0.293689 0.11768-0.445138 0.171915 7.319709 5.901407 12.010545 14.936177 12.010545 25.069979 0 17.774829-14.404058 32.178887-32.17991 32.178887-9.717316 0-18.424628-4.314259-24.327058-11.124362-0.01535 0.054235-0.038886 0.102331-0.054235 0.156566-60.0824-39.025828-131.771139-61.701271-208.753441-61.701271-211.946157 0-383.761314 171.817204-383.761314 383.76643 0 211.94411 171.816181 383.761314 383.761314 383.761314 211.94411 0 383.760291-171.817204 383.760291-383.761314 0-87.044472-28.984125-167.316703-77.819366-231.699036-6.610558-5.892197-10.778484-14.473643-10.778484-24.02416 0-17.770735 14.404058-32.17991 32.17991-32.17991 8.271384 0 15.815197 3.127224 21.518083 8.258081 0.005117-0.024559 0.01535-0.044002 0.01842-0.068562 0.083911 0.102331 0.161682 0.204661 0.245593 0.308015 2.62785 2.424212 4.856611 5.27719 6.566556 8.452509 57.082066 75.097372 90.982154 168.775938 90.982154 270.381034C957.812555 547.350504 757.574045 747.586968 510.567371 747.586968zM284.899702 173.798716 490.980267 49.819031 490.980267 292.758062 284.899702 416.741841ZM504.383532 551.927753 310.031079 451.399175 511.162936 324.821315 712.290699 428.151705ZM533.799492 293.875512 533.799492 50.936481 735.00298 154.265848 735.007073 154.265848 735.007073 397.204879Z" transform="translate(0, 812) scale(1, -1)"/>
</svg>
