<?xml version="1.0" encoding="utf-8"?>
<!DOCTYPE svg PUBLIC "-//W3C//DTD SVG 1.1//EN" "http://www.w3.org/Graphics/SVG/1.1/DTD/svg11.dtd">
<svg version="1.1" id="图形" xmlns="http://www.w3.org/2000/svg" xmlns:xlink="http://www.w3.org/1999/xlink" x="0px" y="0px" width="1024px" height="1024px" viewBox="0 0 1024 1024" enable-background="new 0 0 1024 1024" xml:space="preserve">
  <path fill="#1663f7" d="M313.856 339.13728c0.21504-0.210944 0.392192-0.443392 0.612352-0.662528l90.725376-89.387008 31.640576 31.179776-34.156544 33.64352-15.444992 15.239168 79.16544 77.997056 10.440704-1.143808c2.664448-0.303104 5.383168-0.443392 8.09472-0.443392 5.464064 0 10.817536 0.662528 16.028672 1.80224l-58.285056 57.442304c-1.1776 1.16224-2.44736 2.185216-3.674112 3.272704 17.96608 63.627264 1.609728 134.688768-49.173504 184.715264-50.39616 49.672192-121.82528 65.901568-186.04032 48.827392L312.582144 594.427648l-28.560384-105.008128L177.441792 461.266688 68.641792 568.463104c-17.33632-63.276032-0.83968-133.669888 49.55648-183.323648C171.127808 332.978944 247.26016 317.68448 313.856 339.13728L313.856 339.13728zM635.32032 274.976512c-1.767424-7.693312-2.24768-15.72352-1.335296-23.815168l1.160192-10.28096-7.435264-7.320576-56.2688-55.46496-15.45728-15.218688-49.605632 48.88064-31.65184-31.187968L761.91232-102.414592c17.707008-17.4336 40.904704-26.15296 64.11264-26.15296 23.195648 0 46.395392 8.71936 64.095232 26.15296 35.408896 34.8928 35.408896 91.451392 0 126.332928L635.32032 274.976512 635.32032 274.976512zM857.0624-73.087232l-45.549568-12.02176-36.959232 36.416512 12.205056 44.877824 45.553664 12.030976 36.950016-36.416512L857.0624-73.087232 857.0624-73.087232zM506.708992 241.879808l49.622016-48.891904 56.281088 55.456768c-3.050496 27.056128 5.886976 55.171072 26.939392 75.901952 21.03808 20.734976 49.569792 29.535232 77.02528 26.54208l246.094848 242.4832L824.82176 729.190144l-246.094848-242.4832c3.049472-27.052032-5.894144-55.158784-26.934272-75.902976-21.044224-20.738048-49.574912-29.535232-77.033472-26.532864l-56.276992-55.461888 49.593344-48.869376L224.900096 40.329984l-8.894464 8.768512-46.683136-37.04832L90.805248-110.125312l20.043776-19.759104 124.0064 77.364224 37.588992 45.99808-8.927232 8.781824L506.708992 241.879808 506.708992 241.879808zM506.708992 241.879808" transform="translate(0, 812) scale(1, -1)"/>
</svg>
